<svg width="1371" height="239" viewBox="0 0 1371 239" fill="none" xmlns="http://www.w3.org/2000/svg">
<mask id="path-1-outside-1_2627_2644" maskUnits="userSpaceOnUse" x="0" y="0" width="1371" height="239" fill="black">
<rect fill="white" width="1371" height="239"/>
<path d="M2.4 155.92L76 7.75999H132L56.8 155.92H2.4ZM2.4 184.72V155.92L19.04 140.88H184.16V184.72H2.4ZM108.96 234V94.8H159.84V234H108.96ZM196.44 234V7.75999H248.28V234H196.44ZM335.96 234V7.75999H387.8V234H335.96ZM226.84 140.24V95.76H353.56V140.24H226.84ZM487.455 237.52C470.602 237.52 455.562 234.107 442.335 227.28C429.108 220.24 418.762 210.533 411.295 198.16C403.828 185.787 400.095 171.813 400.095 156.24C400.095 140.453 403.722 126.48 410.975 114.32C418.442 102.16 428.468 92.56 441.055 85.52C453.855 78.2667 468.148 74.64 483.935 74.64C499.295 74.64 512.948 78.0533 524.895 84.88C536.842 91.4933 546.122 100.667 552.735 112.4C559.562 124.133 562.975 137.573 562.975 152.72C562.975 155.493 562.762 158.48 562.335 161.68C562.122 164.88 561.588 168.507 560.735 172.56L425.695 172.88V138.96L539.615 138.32L517.855 152.72C517.642 143.973 516.255 136.72 513.695 130.96C511.135 124.987 507.402 120.507 502.495 117.52C497.588 114.32 491.508 112.72 484.255 112.72C476.788 112.72 470.282 114.533 464.735 118.16C459.188 121.573 454.922 126.48 451.935 132.88C448.948 139.28 447.455 146.96 447.455 155.92C447.455 165.093 449.055 172.987 452.255 179.6C455.455 186 460.042 190.907 466.015 194.32C471.988 197.733 479.135 199.44 487.455 199.44C495.135 199.44 501.962 198.16 507.935 195.6C514.122 192.827 519.562 188.773 524.255 183.44L551.775 210.96C544.095 219.707 534.815 226.32 523.935 230.8C513.055 235.28 500.895 237.52 487.455 237.52ZM569.96 234V78.16H620.52V234H569.96ZM620.52 148.88L598.76 131.6C603.24 113.467 610.387 99.4933 620.2 89.68C630.227 79.8667 643.56 74.96 660.2 74.96C667.667 74.96 674.173 76.1333 679.72 78.48C685.48 80.6133 690.493 83.92 694.76 88.4L665 126.48C662.867 124.347 660.2 122.64 657 121.36C654.013 120.08 650.387 119.44 646.12 119.44C638.227 119.44 631.933 121.893 627.24 126.8C622.76 131.707 620.52 139.067 620.52 148.88ZM700.94 234V7.75999H752.78V234H700.94ZM740.62 146.32V101.84H853.58V146.32H740.62ZM740.62 52.24V7.75999H858.7V52.24H740.62ZM870.148 234V78.16H920.708V234H870.148ZM920.708 148.88L898.948 131.6C903.428 113.467 910.574 99.4933 920.388 89.68C930.414 79.8667 943.748 74.96 960.388 74.96C967.854 74.96 974.361 76.1333 979.908 78.48C985.668 80.6133 990.681 83.92 994.948 88.4L965.188 126.48C963.054 124.347 960.388 122.64 957.188 121.36C954.201 120.08 950.574 119.44 946.308 119.44C938.414 119.44 932.121 121.893 927.428 126.8C922.948 131.707 920.708 139.067 920.708 148.88ZM991.023 234V78.16H1041.58V234H991.023ZM1016.3 57.68C1008.62 57.68 1002.22 55.0133 997.103 49.68C991.983 44.3467 989.423 37.84 989.423 30.16C989.423 22.2667 991.983 15.76 997.103 10.64C1002.22 5.30665 1008.62 2.63998 1016.3 2.63998C1024.2 2.63998 1030.6 5.30665 1035.5 10.64C1040.62 15.76 1043.18 22.2667 1043.18 30.16C1043.18 37.84 1040.62 44.3467 1035.5 49.68C1030.6 55.0133 1024.2 57.68 1016.3 57.68ZM1159.24 234L1105.8 153.04L1158.92 78.16H1214.92L1150.6 162.64L1152.2 142.16L1218.12 234H1159.24ZM1059.4 234V1.35998H1109.96V234H1059.4ZM1277.42 237.2C1263.13 237.2 1250.33 233.68 1239.02 226.64C1227.93 219.6 1219.07 210 1212.46 197.84C1206.06 185.68 1202.86 171.813 1202.86 156.24C1202.86 140.667 1206.06 126.8 1212.46 114.64C1219.07 102.267 1227.93 92.56 1239.02 85.52C1250.33 78.48 1263.13 74.96 1277.42 74.96C1287.87 74.96 1297.26 76.9867 1305.58 81.04C1313.9 84.88 1320.73 90.32 1326.06 97.36C1331.39 104.4 1334.49 112.4 1335.34 121.36V190.8C1334.49 199.973 1331.39 208.08 1326.06 215.12C1320.94 221.947 1314.11 227.387 1305.58 231.44C1297.26 235.28 1287.87 237.2 1277.42 237.2ZM1287.98 191.76C1298.22 191.76 1306.43 188.453 1312.62 181.84C1318.81 175.227 1321.9 166.693 1321.9 156.24C1321.9 149.2 1320.51 143.013 1317.74 137.68C1314.97 132.347 1311.02 128.187 1305.9 125.2C1300.78 122 1294.81 120.4 1287.98 120.4C1281.37 120.4 1275.5 122 1270.38 125.2C1265.26 128.187 1261.21 132.347 1258.22 137.68C1255.45 143.013 1254.06 149.2 1254.06 156.24C1254.06 163.067 1255.45 169.253 1258.22 174.8C1261.21 180.133 1265.26 184.293 1270.38 187.28C1275.5 190.267 1281.37 191.76 1287.98 191.76ZM1319.98 234V192.08L1327.34 154.32L1319.98 116.56V78.16H1369.26V234H1319.98Z"/>
</mask>
<path d="M2.4 155.92L1.50442 155.475L0.786651 156.92H2.4V155.92ZM76 7.75999V6.75999H75.3802L75.1044 7.3151L76 7.75999ZM132 7.75999L132.892 8.21259L133.629 6.75999H132V7.75999ZM56.8 155.92V156.92H57.4139L57.6917 156.373L56.8 155.92ZM2.4 184.72H1.4V185.72H2.4V184.72ZM2.4 155.92L1.72946 155.178L1.4 155.476V155.92H2.4ZM19.04 140.88V139.88H18.655L18.3695 140.138L19.04 140.88ZM184.16 140.88H185.16V139.88H184.16V140.88ZM184.16 184.72V185.72H185.16V184.72H184.16ZM108.96 234H107.96V235H108.96V234ZM108.96 94.8V93.8H107.96V94.8H108.96ZM159.84 94.8H160.84V93.8H159.84V94.8ZM159.84 234V235H160.84V234H159.84ZM2.4 155.92L3.29559 156.365L76.8956 8.20489L76 7.75999L75.1044 7.3151L1.50442 155.475L2.4 155.92ZM76 7.75999V8.75999H132V7.75999V6.75999H76V7.75999ZM132 7.75999L131.108 7.3074L55.9083 155.467L56.8 155.92L57.6917 156.373L132.892 8.21259L132 7.75999ZM56.8 155.92V154.92H2.4V155.92V156.92H56.8V155.92ZM2.4 184.72H3.4V155.92H2.4H1.4V184.72H2.4ZM2.4 155.92L3.07054 156.662L19.7105 141.622L19.04 140.88L18.3695 140.138L1.72946 155.178L2.4 155.92ZM19.04 140.88V141.88H184.16V140.88V139.88H19.04V140.88ZM184.16 140.88H183.16V184.72H184.16H185.16V140.88H184.16ZM184.16 184.72V183.72H2.4V184.72V185.72H184.16V184.72ZM108.96 234H109.96V94.8H108.96H107.96V234H108.96ZM108.96 94.8V95.8H159.84V94.8V93.8H108.96V94.8ZM159.84 94.8H158.84V234H159.84H160.84V94.8H159.84ZM159.84 234V233H108.96V234V235H159.84V234ZM196.44 234H195.44V235H196.44V234ZM196.44 7.75999V6.75999H195.44V7.75999H196.44ZM248.28 7.75999H249.28V6.75999H248.28V7.75999ZM248.28 234V235H249.28V234H248.28ZM335.96 234H334.96V235H335.96V234ZM335.96 7.75999V6.75999H334.96V7.75999H335.96ZM387.8 7.75999H388.8V6.75999H387.8V7.75999ZM387.8 234V235H388.8V234H387.8ZM226.84 140.24H225.84V141.24H226.84V140.24ZM226.84 95.76V94.76H225.84V95.76H226.84ZM353.56 95.76H354.56V94.76H353.56V95.76ZM353.56 140.24V141.24H354.56V140.24H353.56ZM196.44 234H197.44V7.75999H196.44H195.44V234H196.44ZM196.44 7.75999V8.75999H248.28V7.75999V6.75999H196.44V7.75999ZM248.28 7.75999H247.28V234H248.28H249.28V7.75999H248.28ZM248.28 234V233H196.44V234V235H248.28V234ZM335.96 234H336.96V7.75999H335.96H334.96V234H335.96ZM335.96 7.75999V8.75999H387.8V7.75999V6.75999H335.96V7.75999ZM387.8 7.75999H386.8V234H387.8H388.8V7.75999H387.8ZM387.8 234V233H335.96V234V235H387.8V234ZM226.84 140.24H227.84V95.76H226.84H225.84V140.24H226.84ZM226.84 95.76V96.76H353.56V95.76V94.76H226.84V95.76ZM353.56 95.76H352.56V140.24H353.56H354.56V95.76H353.56ZM353.56 140.24V139.24H226.84V140.24V141.24H353.56V140.24ZM442.335 227.28L441.865 228.163L441.876 228.169L442.335 227.28ZM411.295 198.16L410.439 198.677L411.295 198.16ZM410.975 114.32L410.123 113.797L410.116 113.808L410.975 114.32ZM441.055 85.52L441.543 86.3928L441.548 86.39L441.055 85.52ZM524.895 84.88L524.399 85.7483L524.411 85.7549L524.895 84.88ZM552.735 112.4L551.864 112.891L551.871 112.903L552.735 112.4ZM562.335 161.68L561.344 161.548L561.339 161.581L561.337 161.613L562.335 161.68ZM560.735 172.56L560.737 173.56L561.547 173.558L561.714 172.766L560.735 172.56ZM425.695 172.88H424.695V173.882L425.697 173.88L425.695 172.88ZM425.695 138.96L425.689 137.96L424.695 137.966V138.96H425.695ZM539.615 138.32L540.167 139.154L542.967 137.301L539.609 137.32L539.615 138.32ZM517.855 152.72L516.855 152.744L516.899 154.552L518.407 153.554L517.855 152.72ZM513.695 130.96L512.776 131.354L512.781 131.366L513.695 130.96ZM502.495 117.52L501.949 118.358L501.962 118.366L501.975 118.374L502.495 117.52ZM464.735 118.16L465.259 119.012L465.271 119.004L465.282 118.997L464.735 118.16ZM452.255 179.6L451.355 180.036L451.361 180.047L452.255 179.6ZM466.015 194.32L465.519 195.188L466.015 194.32ZM507.935 195.6L508.329 196.519L508.337 196.516L508.344 196.513L507.935 195.6ZM524.255 183.44L524.962 182.733L524.208 181.979L523.504 182.779L524.255 183.44ZM551.775 210.96L552.526 211.62L553.145 210.916L552.482 210.253L551.775 210.96ZM523.935 230.8L523.554 229.875L523.935 230.8ZM487.455 237.52V236.52C470.74 236.52 455.861 233.136 442.794 226.391L442.335 227.28L441.876 228.169C455.263 235.078 470.463 238.52 487.455 238.52V237.52ZM442.335 227.28L442.805 226.397C429.732 219.439 419.521 209.856 412.151 197.643L411.295 198.16L410.439 198.677C418.002 211.211 428.485 221.041 441.865 228.163L442.335 227.28ZM411.295 198.16L412.151 197.643C404.786 185.438 401.095 171.646 401.095 156.24H400.095H399.095C399.095 171.981 402.871 186.135 410.439 198.677L411.295 198.16ZM400.095 156.24H401.095C401.095 140.612 404.683 126.82 411.834 114.832L410.975 114.32L410.116 113.808C402.76 126.14 399.095 140.294 399.095 156.24H400.095ZM410.975 114.32L411.827 114.843C419.203 102.831 429.104 93.3502 441.543 86.3927L441.055 85.52L440.567 84.6472C427.833 91.7698 417.68 101.489 410.123 113.797L410.975 114.32ZM441.055 85.52L441.548 86.39C454.187 79.2281 468.308 75.64 483.935 75.64V74.64V73.64C467.989 73.64 453.523 77.3052 440.562 84.65L441.055 85.52ZM483.935 74.64V75.64C499.142 75.64 512.62 79.0176 524.399 85.7482L524.895 84.88L525.391 84.0117C513.276 77.089 499.448 73.64 483.935 73.64V74.64ZM524.895 84.88L524.411 85.7549C536.198 92.2798 545.343 101.321 551.864 112.891L552.735 112.4L553.606 111.909C546.901 100.012 537.486 90.7068 525.379 84.0051L524.895 84.88ZM552.735 112.4L551.871 112.903C558.599 124.466 561.975 137.729 561.975 152.72H562.975H563.975C563.975 137.418 560.525 123.8 553.599 111.897L552.735 112.4ZM562.975 152.72H561.975C561.975 155.443 561.766 158.385 561.344 161.548L562.335 161.68L563.326 161.812C563.758 158.575 563.975 155.544 563.975 152.72H562.975ZM562.335 161.68L561.337 161.613C561.128 164.755 560.603 168.334 559.756 172.354L560.735 172.56L561.714 172.766C562.574 168.679 563.116 165.005 563.333 161.747L562.335 161.68ZM560.735 172.56L560.733 171.56L425.693 171.88L425.695 172.88L425.697 173.88L560.737 173.56L560.735 172.56ZM425.695 172.88H426.695V138.96H425.695H424.695V172.88H425.695ZM425.695 138.96L425.701 139.96L539.621 139.32L539.615 138.32L539.609 137.32L425.689 137.96L425.695 138.96ZM539.615 138.32L539.063 137.486L517.303 151.886L517.855 152.72L518.407 153.554L540.167 139.154L539.615 138.32ZM517.855 152.72L518.855 152.696C518.639 143.865 517.239 136.471 514.609 130.554L513.695 130.96L512.781 131.366C515.271 136.969 516.644 144.082 516.855 152.744L517.855 152.72ZM513.695 130.96L514.614 130.566C511.983 124.428 508.122 119.775 503.015 116.666L502.495 117.52L501.975 118.374C506.681 121.239 510.287 125.546 512.776 131.354L513.695 130.96ZM502.495 117.52L503.041 116.682C497.937 113.354 491.656 111.72 484.255 111.72V112.72V113.72C491.361 113.72 497.239 115.286 501.949 118.358L502.495 117.52ZM484.255 112.72V111.72C476.619 111.72 469.917 113.577 464.188 117.323L464.735 118.16L465.282 118.997C470.646 115.49 476.957 113.72 484.255 113.72V112.72ZM464.735 118.16L464.211 117.308C458.484 120.833 454.091 125.896 451.029 132.457L451.935 132.88L452.841 133.303C455.752 127.064 459.893 122.314 465.259 119.012L464.735 118.16ZM451.935 132.88L451.029 132.457C447.966 139.02 446.455 146.852 446.455 155.92H447.455H448.455C448.455 147.068 449.931 139.54 452.841 133.303L451.935 132.88ZM447.455 155.92H446.455C446.455 165.208 448.075 173.257 451.355 180.036L452.255 179.6L453.155 179.164C450.035 172.716 448.455 164.979 448.455 155.92H447.455ZM452.255 179.6L451.361 180.047C454.645 186.616 459.367 191.673 465.519 195.188L466.015 194.32L466.511 193.452C460.716 190.14 456.265 185.384 453.149 179.153L452.255 179.6ZM466.015 194.32L465.519 195.188C471.672 198.704 478.997 200.44 487.455 200.44V199.44V198.44C479.273 198.44 472.305 196.762 466.511 193.452L466.015 194.32ZM487.455 199.44V200.44C495.246 200.44 502.211 199.141 508.329 196.519L507.935 195.6L507.541 194.681C501.713 197.179 495.024 198.44 487.455 198.44V199.44ZM507.935 195.6L508.344 196.513C514.668 193.678 520.222 189.536 525.006 184.101L524.255 183.44L523.504 182.779C518.901 188.011 513.576 191.975 507.526 194.688L507.935 195.6ZM524.255 183.44L523.548 184.147L551.068 211.667L551.775 210.96L552.482 210.253L524.962 182.733L524.255 183.44ZM551.775 210.96L551.024 210.3C543.446 218.93 534.294 225.453 523.554 229.875L523.935 230.8L524.316 231.725C535.336 227.187 544.744 220.483 552.526 211.62L551.775 210.96ZM523.935 230.8L523.554 229.875C512.811 234.299 500.783 236.52 487.455 236.52V237.52V238.52C501.007 238.52 513.299 236.261 524.316 231.725L523.935 230.8ZM569.96 234H568.96V235H569.96V234ZM569.96 78.16V77.16H568.96V78.16H569.96ZM620.52 78.16H621.52V77.16H620.52V78.16ZM620.52 234V235H621.52V234H620.52ZM620.52 148.88L619.898 149.663L621.52 150.951V148.88H620.52ZM598.76 131.6L597.789 131.36L597.635 131.984L598.138 132.383L598.76 131.6ZM620.2 89.68L619.5 88.9653L619.493 88.9729L620.2 89.68ZM679.72 78.48L679.33 79.401L679.351 79.4098L679.373 79.4177L679.72 78.48ZM694.76 88.4L695.548 89.0158L696.08 88.3355L695.484 87.7103L694.76 88.4ZM665 126.48L664.293 127.187L665.092 127.986L665.788 127.096L665 126.48ZM657 121.36L656.606 122.279L656.617 122.284L656.629 122.288L657 121.36ZM627.24 126.8L626.517 126.109L626.509 126.117L626.502 126.126L627.24 126.8ZM569.96 234H570.96V78.16H569.96H568.96V234H569.96ZM569.96 78.16V79.16H620.52V78.16V77.16H569.96V78.16ZM620.52 78.16H619.52V234H620.52H621.52V78.16H620.52ZM620.52 234V233H569.96V234V235H620.52V234ZM620.52 148.88L621.142 148.097L599.382 130.817L598.76 131.6L598.138 132.383L619.898 149.663L620.52 148.88ZM598.76 131.6L599.731 131.84C604.182 113.824 611.26 100.034 620.907 90.3871L620.2 89.68L619.493 88.9729C609.514 98.9522 602.298 113.109 597.789 131.36L598.76 131.6ZM620.2 89.68L620.899 90.3947C630.705 80.7977 643.769 75.96 660.2 75.96V74.96V73.96C643.351 73.96 629.748 78.9356 619.501 88.9653L620.2 89.68ZM660.2 74.96V75.96C667.564 75.96 673.933 77.1173 679.33 79.401L679.72 78.48L680.11 77.559C674.414 75.1493 667.769 73.96 660.2 73.96V74.96ZM679.72 78.48L679.373 79.4177C684.989 81.4978 689.873 84.7191 694.036 89.0896L694.76 88.4L695.484 87.7103C691.113 83.1208 685.971 79.7289 680.067 77.5422L679.72 78.48ZM694.76 88.4L693.972 87.7842L664.212 125.864L665 126.48L665.788 127.096L695.548 89.0158L694.76 88.4ZM665 126.48L665.707 125.773C663.465 123.531 660.679 121.755 657.371 120.432L657 121.36L656.629 122.288C659.721 123.525 662.268 125.162 664.293 127.187L665 126.48ZM657 121.36L657.394 120.441C654.25 119.094 650.482 118.44 646.12 118.44V119.44V120.44C650.292 120.44 653.776 121.066 656.606 122.279L657 121.36ZM646.12 119.44V118.44C638.002 118.44 631.43 120.973 626.517 126.109L627.24 126.8L627.963 127.491C632.436 122.814 638.451 120.44 646.12 120.44V119.44ZM627.24 126.8L626.502 126.126C621.788 131.288 619.52 138.934 619.52 148.88H620.52H621.52C621.52 139.199 623.732 132.126 627.979 127.474L627.24 126.8ZM700.94 234H699.94V235H700.94V234ZM700.94 7.75999V6.75999H699.94V7.75999H700.94ZM752.78 7.75999H753.78V6.75999H752.78V7.75999ZM752.78 234V235H753.78V234H752.78ZM740.62 146.32H739.62V147.32H740.62V146.32ZM740.62 101.84V100.84H739.62V101.84H740.62ZM853.58 101.84H854.58V100.84H853.58V101.84ZM853.58 146.32V147.32H854.58V146.32H853.58ZM740.62 52.24H739.62V53.24H740.62V52.24ZM740.62 7.75999V6.75999H739.62V7.75999H740.62ZM858.7 7.75999H859.7V6.75999H858.7V7.75999ZM858.7 52.24V53.24H859.7V52.24H858.7ZM700.94 234H701.94V7.75999H700.94H699.94V234H700.94ZM700.94 7.75999V8.75999H752.78V7.75999V6.75999H700.94V7.75999ZM752.78 7.75999H751.78V234H752.78H753.78V7.75999H752.78ZM752.78 234V233H700.94V234V235H752.78V234ZM740.62 146.32H741.62V101.84H740.62H739.62V146.32H740.62ZM740.62 101.84V102.84H853.58V101.84V100.84H740.62V101.84ZM853.58 101.84H852.58V146.32H853.58H854.58V101.84H853.58ZM853.58 146.32V145.32H740.62V146.32V147.32H853.58V146.32ZM740.62 52.24H741.62V7.75999H740.62H739.62V52.24H740.62ZM740.62 7.75999V8.75999H858.7V7.75999V6.75999H740.62V7.75999ZM858.7 7.75999H857.7V52.24H858.7H859.7V7.75999H858.7ZM858.7 52.24V51.24H740.62V52.24V53.24H858.7V52.24ZM870.148 234H869.148V235H870.148V234ZM870.148 78.16V77.16H869.148V78.16H870.148ZM920.708 78.16H921.708V77.16H920.708V78.16ZM920.708 234V235H921.708V234H920.708ZM920.708 148.88L920.086 149.663L921.708 150.951V148.88H920.708ZM898.948 131.6L897.977 131.36L897.823 131.984L898.326 132.383L898.948 131.6ZM920.388 89.68L919.688 88.9653L919.68 88.9729L920.388 89.68ZM979.908 78.48L979.518 79.401L979.539 79.4098L979.56 79.4177L979.908 78.48ZM994.948 88.4L995.735 89.0158L996.267 88.3355L995.672 87.7103L994.948 88.4ZM965.188 126.48L964.48 127.187L965.28 127.986L965.975 127.096L965.188 126.48ZM957.188 121.36L956.794 122.279L956.805 122.284L956.816 122.288L957.188 121.36ZM927.427 126.8L926.705 126.109L926.697 126.117L926.689 126.126L927.427 126.8ZM870.148 234H871.148V78.16H870.148H869.148V234H870.148ZM870.148 78.16V79.16H920.708V78.16V77.16H870.148V78.16ZM920.708 78.16H919.708V234H920.708H921.708V78.16H920.708ZM920.708 234V233H870.148V234V235H920.708V234ZM920.708 148.88L921.329 148.097L899.569 130.817L898.948 131.6L898.326 132.383L920.086 149.663L920.708 148.88ZM898.948 131.6L899.918 131.84C904.369 113.824 911.447 100.034 921.095 90.3871L920.388 89.68L919.68 88.9729C909.701 98.9522 902.486 113.109 897.977 131.36L898.948 131.6ZM920.388 89.68L921.087 90.3947C930.893 80.7977 943.957 75.96 960.388 75.96V74.96V73.96C943.538 73.96 929.936 78.9356 919.688 88.9653L920.388 89.68ZM960.388 74.96V75.96C967.751 75.96 974.12 77.1173 979.518 79.401L979.908 78.48L980.297 77.559C974.601 75.1493 967.957 73.96 960.388 73.96V74.96ZM979.908 78.48L979.56 79.4177C985.176 81.4978 990.061 84.7191 994.223 89.0896L994.948 88.4L995.672 87.7103C991.301 83.1208 986.159 79.7289 980.255 77.5422L979.908 78.48ZM994.948 88.4L994.16 87.7842L964.4 125.864L965.188 126.48L965.975 127.096L995.735 89.0158L994.948 88.4ZM965.188 126.48L965.895 125.773C963.653 123.531 960.867 121.755 957.559 120.432L957.188 121.36L956.816 122.288C959.908 123.525 962.456 125.162 964.48 127.187L965.188 126.48ZM957.188 121.36L957.581 120.441C954.438 119.094 950.669 118.44 946.307 118.44V119.44V120.44C950.479 120.44 953.964 121.066 956.794 122.279L957.188 121.36ZM946.307 119.44V118.44C938.19 118.44 931.618 120.973 926.705 126.109L927.427 126.8L928.15 127.491C932.624 122.814 938.639 120.44 946.307 120.44V119.44ZM927.427 126.8L926.689 126.126C921.976 131.288 919.708 138.934 919.708 148.88H920.708H921.708C921.708 139.199 923.919 132.126 928.166 127.474L927.427 126.8ZM991.023 234H990.023V235H991.023V234ZM991.023 78.16V77.16H990.023V78.16H991.023ZM1041.58 78.16H1042.58V77.16H1041.58V78.16ZM1041.58 234V235H1042.58V234H1041.58ZM997.102 49.68L997.824 48.9875L997.102 49.68ZM997.102 10.64L997.81 11.3471L997.817 11.3399L997.824 11.3325L997.102 10.64ZM1035.5 10.64L1034.77 11.3171L1034.78 11.3324L1034.8 11.3471L1035.5 10.64ZM1035.5 49.68L1034.78 48.9875L1034.77 48.9951L1034.77 49.0029L1035.5 49.68ZM991.023 234H992.023V78.16H991.023H990.023V234H991.023ZM991.023 78.16V79.16H1041.58V78.16V77.16H991.023V78.16ZM1041.58 78.16H1040.58V234H1041.58H1042.58V78.16H1041.58ZM1041.58 234V233H991.023V234V235H1041.58V234ZM1016.3 57.68V56.68C1008.88 56.68 1002.75 54.116 997.824 48.9875L997.102 49.68L996.381 50.3725C1001.7 55.9107 1008.36 58.68 1016.3 58.68V57.68ZM997.102 49.68L997.824 48.9875C992.89 43.8482 990.422 37.5929 990.422 30.16H989.422H988.422C988.422 38.087 991.075 44.8451 996.381 50.3725L997.102 49.68ZM989.422 30.16H990.422C990.422 22.5055 992.895 16.2617 997.81 11.3471L997.102 10.64L996.395 9.93289C991.07 15.2583 988.422 22.0278 988.422 30.16H989.422ZM997.102 10.64L997.824 11.3325C1002.75 6.20402 1008.88 3.63998 1016.3 3.63998V2.63998V1.63998C1008.36 1.63998 1001.7 4.40929 996.381 9.94746L997.102 10.64ZM1016.3 2.63998V3.63998C1023.94 3.63998 1030.07 6.20918 1034.77 11.3171L1035.5 10.64L1036.24 9.96294C1031.12 4.40414 1024.45 1.63998 1016.3 1.63998V2.63998ZM1035.5 10.64L1034.8 11.3471C1039.71 16.2617 1042.18 22.5055 1042.18 30.16H1043.18H1044.18C1044.18 22.0278 1041.54 15.2583 1036.21 9.93289L1035.5 10.64ZM1043.18 30.16H1042.18C1042.18 37.5929 1039.71 43.8482 1034.78 48.9875L1035.5 49.68L1036.22 50.3725C1041.53 44.8451 1044.18 38.087 1044.18 30.16H1043.18ZM1035.5 49.68L1034.77 49.0029C1030.07 54.1108 1023.94 56.68 1016.3 56.68V57.68V58.68C1024.45 58.68 1031.12 55.9158 1036.24 50.357L1035.5 49.68ZM1159.24 234L1158.4 234.551L1158.7 235H1159.24V234ZM1105.8 153.04L1104.98 152.461L1104.59 153.02L1104.96 153.591L1105.8 153.04ZM1158.92 78.16V77.16H1158.4L1158.1 77.5814L1158.92 78.16ZM1214.92 78.16L1215.71 78.7658L1216.94 77.16H1214.92V78.16ZM1150.6 162.64L1149.6 162.562L1149.34 165.948L1151.39 163.246L1150.6 162.64ZM1152.2 142.16L1153.01 141.577L1151.41 139.353L1151.2 142.082L1152.2 142.16ZM1218.12 234V235H1220.07L1218.93 233.417L1218.12 234ZM1059.4 234H1058.4V235H1059.4V234ZM1059.4 1.35999V0.359985H1058.4V1.35999H1059.4ZM1109.96 1.35999H1110.96V0.359985H1109.96V1.35999ZM1109.96 234V235H1110.96V234H1109.96ZM1159.24 234L1160.07 233.449L1106.63 152.489L1105.8 153.04L1104.96 153.591L1158.4 234.551L1159.24 234ZM1105.8 153.04L1106.61 153.619L1159.73 78.7386L1158.92 78.16L1158.1 77.5814L1104.98 152.461L1105.8 153.04ZM1158.92 78.16V79.16H1214.92V78.16V77.16H1158.92V78.16ZM1214.92 78.16L1214.12 77.5542L1149.8 162.034L1150.6 162.64L1151.39 163.246L1215.71 78.7658L1214.92 78.16ZM1150.6 162.64L1151.59 162.718L1153.19 142.238L1152.2 142.16L1151.2 142.082L1149.6 162.562L1150.6 162.64ZM1152.2 142.16L1151.39 142.743L1217.31 234.583L1218.12 234L1218.93 233.417L1153.01 141.577L1152.2 142.16ZM1218.12 234V233H1159.24V234V235H1218.12V234ZM1059.4 234H1060.4V1.35999H1059.4H1058.4V234H1059.4ZM1059.4 1.35999V2.35999H1109.96V1.35999V0.359985H1059.4V1.35999ZM1109.96 1.35999H1108.96V234H1109.96H1110.96V1.35999H1109.96ZM1109.96 234V233H1059.4V234V235H1109.96V234ZM1239.02 226.64L1238.48 227.484L1238.49 227.489L1239.02 226.64ZM1212.46 197.84L1211.57 198.306L1211.58 198.318L1212.46 197.84ZM1212.46 114.64L1211.58 114.169L1211.58 114.174L1212.46 114.64ZM1239.02 85.52L1238.49 84.6711L1238.48 84.6757L1239.02 85.52ZM1305.58 81.04L1305.14 81.939L1305.15 81.9436L1305.16 81.948L1305.58 81.04ZM1335.34 121.36H1336.34V121.312L1336.34 121.265L1335.34 121.36ZM1335.34 190.8L1336.34 190.893L1336.34 190.846V190.8H1335.34ZM1326.06 215.12L1325.26 214.516L1325.26 214.52L1326.06 215.12ZM1305.58 231.44L1306 232.348L1306.01 232.343L1305.58 231.44ZM1312.62 181.84L1313.35 182.523L1312.62 181.84ZM1317.74 137.68L1318.63 137.219L1317.74 137.68ZM1305.9 125.2L1305.37 126.048L1305.38 126.056L1305.4 126.064L1305.9 125.2ZM1270.38 125.2L1270.88 126.064L1270.9 126.056L1270.91 126.048L1270.38 125.2ZM1258.22 137.68L1257.35 137.191L1257.34 137.205L1257.33 137.219L1258.22 137.68ZM1258.22 174.8L1257.33 175.247L1257.34 175.268L1257.35 175.289L1258.22 174.8ZM1270.38 187.28L1270.88 186.416L1270.38 187.28ZM1319.98 234H1318.98V235H1319.98V234ZM1319.98 192.08L1319 191.889L1318.98 191.983V192.08H1319.98ZM1327.34 154.32L1328.32 154.511L1328.36 154.32L1328.32 154.129L1327.34 154.32ZM1319.98 116.56H1318.98V116.657L1319 116.751L1319.98 116.56ZM1319.98 78.16V77.16H1318.98V78.16H1319.98ZM1369.26 78.16H1370.26V77.16H1369.26V78.16ZM1369.26 234V235H1370.26V234H1369.26ZM1277.42 237.2V236.2C1263.3 236.2 1250.68 232.725 1239.55 225.791L1239.02 226.64L1238.49 227.489C1249.97 234.635 1262.95 238.2 1277.42 238.2V237.2ZM1239.02 226.64L1239.56 225.796C1228.61 218.852 1219.88 209.381 1213.34 197.362L1212.46 197.84L1211.58 198.318C1218.27 210.619 1227.24 220.348 1238.48 227.484L1239.02 226.64ZM1212.46 197.84L1213.34 197.374C1207.03 185.376 1203.86 171.673 1203.86 156.24H1202.86H1201.86C1201.86 171.954 1205.09 185.984 1211.58 198.306L1212.46 197.84ZM1202.86 156.24H1203.86C1203.86 140.807 1207.03 127.104 1213.34 115.106L1212.46 114.64L1211.58 114.174C1205.09 126.496 1201.86 140.526 1201.86 156.24H1202.86ZM1212.46 114.64L1213.34 115.111C1219.88 102.879 1228.62 93.3056 1239.56 86.3643L1239.02 85.52L1238.48 84.6757C1227.24 91.8143 1218.27 101.654 1211.58 114.169L1212.46 114.64ZM1239.02 85.52L1239.55 86.3689C1250.68 79.4349 1263.3 75.96 1277.42 75.96V74.96V73.96C1262.95 73.96 1249.97 77.5251 1238.49 84.6711L1239.02 85.52ZM1277.42 74.96V75.96C1287.74 75.96 1296.98 77.9603 1305.14 81.939L1305.58 81.04L1306.02 80.141C1297.54 76.0131 1288.01 73.96 1277.42 73.96V74.96ZM1305.58 81.04L1305.16 81.948C1313.34 85.7218 1320.03 91.0597 1325.26 97.9639L1326.06 97.36L1326.86 96.7561C1321.42 89.5803 1314.46 84.0382 1306 80.132L1305.58 81.04ZM1326.06 97.36L1325.26 97.9639C1330.48 104.853 1333.51 112.676 1334.34 121.455L1335.34 121.36L1336.34 121.265C1335.46 112.124 1332.3 103.947 1326.86 96.7561L1326.06 97.36ZM1335.34 121.36H1334.34V190.8H1335.34H1336.34V121.36H1335.34ZM1335.34 190.8L1334.34 190.707C1333.51 199.704 1330.48 207.631 1325.26 214.516L1326.06 215.12L1326.86 215.724C1332.31 208.529 1335.47 200.243 1336.34 190.893L1335.34 190.8ZM1326.06 215.12L1325.26 214.52C1320.25 221.204 1313.55 226.545 1305.15 230.537L1305.58 231.44L1306.01 232.343C1314.67 228.228 1321.63 222.69 1326.86 215.72L1326.06 215.12ZM1305.58 231.44L1305.16 230.532C1296.99 234.303 1287.75 236.2 1277.42 236.2V237.2V238.2C1288 238.2 1297.53 236.257 1306 232.348L1305.58 231.44ZM1287.98 191.76V192.76C1298.46 192.76 1306.95 189.366 1313.35 182.523L1312.62 181.84L1311.89 181.157C1305.92 187.541 1297.98 190.76 1287.98 190.76V191.76ZM1312.62 181.84L1313.35 182.523C1319.74 175.696 1322.9 166.905 1322.9 156.24H1321.9H1320.9C1320.9 166.482 1317.88 174.757 1311.89 181.157L1312.62 181.84ZM1321.9 156.24H1322.9C1322.9 149.067 1321.49 142.717 1318.63 137.219L1317.74 137.68L1316.85 138.141C1319.54 143.31 1320.9 149.333 1320.9 156.24H1321.9ZM1317.74 137.68L1318.63 137.219C1315.77 131.72 1311.69 127.42 1306.4 124.336L1305.9 125.2L1305.4 126.064C1310.35 128.954 1314.17 132.973 1316.85 138.141L1317.74 137.68ZM1305.9 125.2L1306.43 124.352C1301.13 121.04 1294.97 119.4 1287.98 119.4V120.4V121.4C1294.64 121.4 1300.43 122.96 1305.37 126.048L1305.9 125.2ZM1287.98 120.4V119.4C1281.2 119.4 1275.14 121.043 1269.85 124.352L1270.38 125.2L1270.91 126.048C1275.86 122.957 1281.54 121.4 1287.98 121.4V120.4ZM1270.38 125.2L1269.88 124.336C1264.6 127.416 1260.42 131.707 1257.35 137.191L1258.22 137.68L1259.09 138.169C1261.99 132.986 1265.92 128.958 1270.88 126.064L1270.38 125.2ZM1258.22 137.68L1257.33 137.219C1254.47 142.717 1253.06 149.067 1253.06 156.24H1254.06H1255.06C1255.06 149.333 1256.42 143.31 1259.11 138.141L1258.22 137.68ZM1254.06 156.24H1253.06C1253.06 163.206 1254.48 169.548 1257.33 175.247L1258.22 174.8L1259.11 174.353C1256.42 168.959 1255.06 162.927 1255.06 156.24H1254.06ZM1258.22 174.8L1257.35 175.289C1260.42 180.773 1264.6 185.064 1269.88 188.144L1270.38 187.28L1270.88 186.416C1265.92 183.522 1261.99 179.494 1259.09 174.311L1258.22 174.8ZM1270.38 187.28L1269.88 188.144C1275.17 191.23 1281.21 192.76 1287.98 192.76V191.76V190.76C1281.52 190.76 1275.83 189.304 1270.88 186.416L1270.38 187.28ZM1319.98 234H1320.98V192.08H1319.98H1318.98V234H1319.98ZM1319.98 192.08L1320.96 192.271L1328.32 154.511L1327.34 154.32L1326.36 154.129L1319 191.889L1319.98 192.08ZM1327.34 154.32L1328.32 154.129L1320.96 116.369L1319.98 116.56L1319 116.751L1326.36 154.511L1327.34 154.32ZM1319.98 116.56H1320.98V78.16H1319.98H1318.98V116.56H1319.98ZM1319.98 78.16V79.16H1369.26V78.16V77.16H1319.98V78.16ZM1369.26 78.16H1368.26V234H1369.26H1370.26V78.16H1369.26ZM1369.26 234V233H1319.98V234V235H1369.26V234Z" fill="#8F868B" fill-opacity="0.6" mask="url(#path-1-outside-1_2627_2644)"/>
</svg>
