<svg viewBox="0 0 117 150" fill="none" xmlns="http://www.w3.org/2000/svg">
    <path fill-rule="evenodd" clip-rule="evenodd" d="M69.6255 72.0612C71.1832 68.3101 71.8391 65.0239 72.1876 62.4634C75.4261 37.9625 56.5689 24.5358 36.5229 18.3785C31.1527 16.7256 22.3801 16.0705 15.7596 18.5555C11.1068 20.2998 7.49926 23.5566 6.5974 28.9328C5.59305 34.79 8.36021 40.9094 12.8285 46.4295C19.2851 54.4189 29.267 61.1799 35.5391 64.1158C42.7745 67.4999 54.4783 71.4735 66.3666 73.8021C64.3784 77.7112 61.3653 82.0382 56.692 86.5052C54.6218 88.4984 51.7728 90.2023 48.5342 91.5725C46.0951 86.6729 42.6106 82.0535 38.0808 77.9777C34.2684 74.5571 24.9627 68.9305 16.723 67.2037C10.8403 65.9758 5.51114 66.7664 2.68256 71.162C-0.822411 76.626 0.407324 81.7185 3.83031 85.9783C8.64709 91.9789 17.9733 96.2426 23.4869 97.2943C29.9025 98.5144 39.413 97.3825 47.3863 94.4511C54.7857 111.455 49.395 131.457 32.0546 142.457C31.5422 142.79 31.3783 143.5 31.6857 144.043C32.0137 144.586 32.7106 144.756 33.223 144.423C51.5677 132.78 57.3068 111.618 49.4974 93.6157C52.9409 92.1488 55.995 90.3261 58.2086 88.1983C63.3534 83.2742 66.5919 78.505 68.6621 74.2312C70.8962 74.6282 73.1305 74.9613 75.3442 75.2161C85.2852 76.3664 94.6112 75.8908 100.74 72.5822C114.903 64.9385 118.839 49.7956 116.154 35.0141C113.489 20.3748 104.327 6.14436 92.4591 0.118047C91.9057 -0.162479 91.2293 0.0741579 90.9629 0.64581C90.6964 1.21767 90.9219 1.90955 91.4753 2.18987C102.769 7.9242 111.439 21.5096 113.96 35.4394C116.461 49.2271 112.915 63.4063 99.7149 70.536C93.8733 73.6765 85.0393 74.0147 75.5902 72.9227C73.6225 72.6954 71.6342 72.4045 69.6255 72.0612ZM46.4229 92.406C44.1067 87.8383 40.8479 83.5278 36.605 79.72C32.977 76.4633 24.1428 71.1098 16.272 69.4655C11.3937 68.4458 6.88436 68.7886 4.5477 72.4389C1.67813 76.8908 2.76455 81.0342 5.55213 84.5051C10.0205 90.1001 18.7522 94.0442 23.8969 95.0247C29.923 96.1745 38.9005 95.1413 46.4229 92.406ZM67.3708 71.6499C68.9696 67.928 69.6255 64.6707 69.9739 62.1506C73.0485 38.9204 54.8882 26.4287 35.8876 20.5907C30.8863 19.049 22.7081 18.4069 16.518 20.7249C12.6441 22.1829 9.549 24.8393 8.79061 29.333C7.88874 34.5811 10.5328 40.0018 14.5298 44.9482C20.7608 52.6585 30.4149 59.18 36.4615 62.0134C43.6969 65.3979 55.4621 69.3798 67.3708 71.6499Z" fill="#EC008C"/>
    <path fill-rule="evenodd" clip-rule="evenodd" d="M33.4528 142.791C33.8627 141.692 35.0311 138.527 35.195 138.043C35.646 136.686 35.687 135.94 35.646 135.176C35.605 134.564 35.482 133.934 35.5435 132.78C35.5845 132.144 35.0926 131.604 34.4777 131.572C33.8627 131.54 33.3503 132.032 33.3093 132.668C33.2683 133.713 33.3299 134.377 33.3914 134.958C33.4528 135.628 33.4733 136.15 33.0839 137.293C32.8994 137.85 31.5466 140.838 31.1981 142.322C31.0137 143.096 31.1161 143.677 31.2596 143.931C31.4646 144.296 31.8336 144.64 32.4075 144.875C33.1454 145.174 34.3752 145.348 35.7485 145.575C37.0398 145.785 38.495 146.052 39.7658 146.616C40.8317 147.097 41.7541 147.793 42.205 148.95C42.4305 149.542 43.0659 149.835 43.6398 149.601C44.2137 149.368 44.5006 148.696 44.2751 148.104C43.6192 146.353 42.2666 145.227 40.6474 144.5C39.2126 143.857 37.5728 143.533 36.097 143.295C35.2156 143.149 34.3957 143.037 33.7603 142.886C33.6578 142.863 33.5553 142.827 33.4528 142.791Z" fill="#EC008C"/>
</svg>
