<svg width="214" height="96" viewBox="0 0 214 96" fill="none" xmlns="http://www.w3.org/2000/svg">
    <path d="M32.4988 2.08945C44.5492 -0.983244 56.536 -1.98614 68.1039 3.83707C73.6843 6.64132 77.0236 11.4605 79.4847 17.1188C80.1478 18.6428 82.1367 20.1487 83.7878 20.5745C92.2521 22.7392 100.914 24.1784 109.274 26.6744C112.562 27.655 115.236 30.686 118.202 32.7807C119.418 39.7946 122.689 42.78 130.68 42.7709C141.536 42.7526 151.925 46.1474 160.355 53.9106C164.685 57.8957 166.835 62.569 166.681 68.0324C174.792 69.4745 183.044 70.3542 190.959 72.4994C198.608 74.5658 205.906 77.924 213.372 80.7122C213.141 81.3735 212.906 82.0437 212.676 82.7051C210.193 81.8402 207.739 80.8422 205.209 80.1452C194.864 77.2672 184.527 74.3358 174.118 71.6966C169.221 70.4621 166.041 72.1496 163.761 77.3008C160.045 85.7153 153.93 92.1897 144.513 94.5985C139.855 95.7962 134.522 94.2964 133.257 91.4882C131.825 88.3011 133.722 82.4796 137.871 80.3465C144.593 76.8978 151.579 73.8591 158.684 71.2643C163.506 69.5053 165.06 67.5543 163.098 62.5624C159.331 52.9751 150.924 49.1835 141.89 46.9535C135.504 45.372 128.797 45.088 121.836 44.1707C121.158 47.3059 120.79 49.8816 120.034 52.333C116.319 64.4092 107.074 70.2769 95.6532 73.3905C92.0019 74.3815 88.1448 74.9606 84.3704 75.0822C75.8531 75.3593 73.2218 70.9335 77.3396 63.4632C81.8655 55.2587 88.6511 49.5343 97.5651 46.732C104.124 44.6684 110.883 43.2312 118.466 41.2795C117.811 40.1944 116.918 38.714 116.038 37.2297C114.696 35.0538 113.845 32.2009 111.932 30.8058C103.368 24.5587 93.0784 24.3197 83.0451 23.5368C82.5721 23.5027 81.952 25.5034 81.4001 26.5581C74.1106 46.2805 59.3296 56.0157 38.9837 57.8756C31.4512 58.5627 25.8225 54.5075 25.915 48.1863C25.9701 44.5673 27.8174 40.3999 30.1461 37.5069C37.5258 28.3259 48.1408 24.6041 59.2004 21.976C60.6525 21.6276 62.1192 21.3559 63.583 21.0483C68.0685 20.7384 72.5452 20.4236 77.2599 20.0924C75.1334 12.0002 70.7521 6.33866 63.496 4.18194C51.6218 0.659635 39.7545 1.38574 28.4291 6.92079C17.7405 9.97239 9.58324 16.8679 1.93867 24.5288C1.59004 24.2092 1.24141 23.8896 0.892784 23.57C2.82904 21.1567 4.42154 18.3121 6.77826 16.4186C10.5912 13.3666 14.9605 11.0014 18.986 8.20489C20.2693 7.31642 21.2408 5.98013 22.36 4.85172C23.1895 4.40897 24.0152 3.95263 24.8448 3.50989C27.3945 3.03933 29.9491 2.56002 32.4988 2.08945ZM77.7665 21.8156C68.6915 23.4873 60.008 24.1868 51.9653 26.8213C43.568 29.579 35.2306 33.4227 30.6464 42.041C26.4858 49.8765 29.6249 55.0764 38.5656 54.9432C51.3089 54.7612 61.3271 48.3051 70.1412 40.1043C74.6711 35.9064 78.0863 30.3794 77.7665 21.8156ZM118.47 45.0801C108.272 45.3151 99.1996 47.5375 91.0873 53.1995C86.0175 56.7427 81.5672 60.7561 79.164 66.6854C77.6792 70.3449 78.9056 72.0905 82.643 72.2C96.2157 72.6048 116.335 65.8827 118.47 45.0801ZM162.838 73.0124C152.65 74.4431 144.644 78.6996 137.595 84.7124C136.358 85.764 135.681 89.5976 136.503 90.4437C137.766 91.7523 140.692 92.3143 142.673 91.9398C152.92 89.9924 158.194 82.4786 162.838 73.0124Z"
          fill="#EC008C" stroke="#EC008C" stroke-linecap="round"/>
</svg>
