<svg viewBox="0 0 284 40" fill="none" xmlns="http://www.w3.org/2000/svg">
    <path opacity="0.6" d="M181.035 0.69722C160.838 1.32217 140.654 2.37036 120.504 3.8418C102.218 4.16585 83.9295 4.4899 65.644 4.81394C45.5795 5.17106 25.515 5.52486 5.45383 5.88198C3.51286 5.91504 0.507153 7.34019 0.209558 9.49279C-0.117796 11.8669 2.81847 12.2637 4.47177 12.2373C17.5097 12.0058 30.5477 11.7743 43.5856 11.5429C38.1595 12.234 32.7399 12.9515 27.3204 13.7021C25.4423 13.9633 22.8201 14.8429 22.2216 16.8963C21.686 18.7281 23.3591 20.0276 25.1347 20.0607C55.2447 20.5765 85.3579 21.0957 115.468 21.6115C121.876 21.7206 128.284 21.833 134.693 21.9422C125.474 22.9507 116.268 24.1113 107.089 25.424C92.6953 27.4873 78.3612 29.9342 64.0899 32.7217C62.549 33.0226 60.3633 34.3717 60.1286 36.101C59.9004 37.7543 61.7223 38.8356 63.1839 38.8488C97.4271 39.1464 131.67 39.4473 165.913 39.7449C175.569 39.8276 185.221 39.9136 194.876 39.9962C197.088 40.0161 199.925 39.3845 201.04 37.2121C202.035 35.2678 200.17 33.6508 198.269 33.6343C165.305 33.3466 132.342 33.059 99.378 32.7713C100.297 32.6324 101.213 32.4902 102.132 32.3547C114.588 30.5096 127.087 28.9455 139.613 27.6659C164.677 25.1066 189.853 23.6814 215.046 23.4004C216.161 23.3871 217.288 23.3805 218.412 23.3739C231.183 23.5922 243.949 23.8137 256.719 24.0319C258.928 24.0683 261.775 23.407 262.883 21.2478C263.901 19.2638 261.997 17.7461 260.112 17.67C247.081 17.1476 234.036 16.9227 220.995 16.9988C203.923 16.7045 186.851 16.4135 169.779 16.1192C139.669 15.6034 109.556 15.0843 79.4457 14.5684C77.0187 14.5254 74.5883 14.4858 72.1613 14.4428C87.9272 12.7663 103.72 11.3478 119.532 10.1938C152.495 9.60852 185.462 9.02656 218.426 8.44129C238.49 8.08418 258.555 7.73037 278.616 7.37326C280.458 7.34019 283.162 6.07707 283.715 4.17907C284.257 2.32407 282.57 1.08079 280.801 1.01465C247.56 -0.222016 214.279 -0.331134 181.035 0.69722Z" fill="#EC008C"/>
</svg>
