<svg width="560" height="651" viewBox="0 0 560 651" fill="none" xmlns="http://www.w3.org/2000/svg">
<path id="Mask" opacity="0.05" d="M-121.954 264.648C-68.0499 429.691 -131.549 397.793 -112.056 557.148C-98.9018 664.684 58.1131 662.045 130.425 635.658C206.141 608.028 272.307 522.147 299.009 476.255C350.241 388.203 317.552 314.093 346.557 244.153C375.563 174.212 487.312 95.3669 544.563 -23.6704C601.815 -142.708 484.723 -215.994 413.081 -205.384C338.168 -194.289 251.371 -143.427 154.162 -134.399C68.1009 -126.406 -3.09904 -123.25 -121.954 -96.4825C-121.954 -96.4825 -148.412 -16.7279 -112.056 3.17145C-28.759 48.7645 -146.971 188.051 -121.954 264.648Z" fill="url(#paint0_linear_730_5180)"/>
<defs>
<linearGradient id="paint0_linear_730_5180" x1="-423.992" y1="177.686" x2="130.781" y2="738.378" gradientUnits="userSpaceOnUse">
<stop stop-color="#EC008C" stop-opacity="0.4"/>
<stop offset="1" stop-color="#EC008C"/>
</linearGradient>
</defs>
</svg>
